<svg width="512" height="512" viewBox="0 0 512 512" xmlns="http://www.w3.org/2000/svg"><defs><linearGradient id="b" x1="0%" y1="0%" x2="100%" y2="100%"><stop offset="0%" stop-color="#232326"/><stop offset="100%" stop-color="#1a1a1c"/></linearGradient><linearGradient id="e" x1="0%" y1="0%" x2="0%" y2="100%"><stop offset="0%" stop-color="#2c2c30"/><stop offset="100%" stop-color="#242427"/></linearGradient><filter id="c" x="-100%" y="-100%" width="300%" height="300%"><feGaussianBlur stdDeviation="16"/></filter><filter id="d" x="-50%" y="-50%" width="200%" height="200%"><feDropShadow dx="0" dy="4" stdDeviation="6" flood-color="#000" flood-opacity=".35"/></filter><clipPath id="a"><rect width="512" height="512" rx="112" ry="112"/></clipPath></defs><g clip-path="url(#a)"><path fill="url(#b)" d="M0 0h512v512H0z"/><path d="M256 140c-51 0-88 13-98 22v76c0 64 32 112 98 152 66-40 98-88 98-152v-76c-10-9-47-22-98-22Z" fill="none" stroke="#22d3ee" stroke-width="18" opacity=".55" filter="url(#c)" style="mix-blend-mode:screen"/><g filter="url(#d)"><path d="M256 148c-48 0-82 12-91 20v68c0 60 30 105 91 144 61-39 91-84 91-144v-68c-9-8-43-20-91-20" fill="url(#e)"/></g><path d="M256 148c-48 0-82 12-91 20v68c0 60 30 105 91 144 61-39 91-84 91-144v-68c-9-8-43-20-91-20Z" fill="none" stroke="#22d3ee" stroke-width="2.5" opacity=".9"/><g fill="#22d3ee"><circle cx="256" cy="211" r="24" fill="none" stroke="#22d3ee" stroke-width="11"/><rect x="249" y="231" width="14" height="82" rx="4"/><rect x="256" y="267" width="20" height="11" rx="3"/><rect x="256" y="287" width="26" height="11" rx="3"/></g></g></svg>
